<svg width="24" height="24" viewBox="0 0 24 24" fill="none" xmlns="http://www.w3.org/2000/svg">
<path d="M18 13.6857C18 16.1425 17.2817 17.6723 16.273 18.5995C15.2484 19.5412 13.7734 20 12 20C8.70284 20 6 17.4644 6 13.6857C6 12.7483 6.35581 11.6644 6.97466 10.5126C7.58724 9.37242 8.41648 8.24104 9.26607 7.22848C10.1129 6.21913 10.9627 5.34827 11.602 4.72897C11.7466 4.58892 11.8801 4.46204 12 4.34965C12.1199 4.46204 12.2534 4.58892 12.398 4.72897C13.0373 5.34827 13.8871 6.21913 14.7339 7.22848C15.5835 8.24104 16.4128 9.37242 17.0253 10.5126C17.6442 11.6644 18 12.7483 18 13.6857Z" stroke="white" stroke-width="2"/>
</svg>
