<svg width="24" height="24" viewBox="0 0 24 24" fill="none" xmlns="http://www.w3.org/2000/svg">
<path fill-rule="evenodd" clip-rule="evenodd" d="M1 5C1 2.79086 2.79086 1 5 1H13C15.2091 1 17 2.79086 17 5H15C15 3.89543 14.1046 3 13 3C11.8954 3 11 3.89543 11 5C7.68629 5 5 7.68629 5 11C3.89543 11 3 11.8954 3 13C3 14.1046 3.89543 15 5 15V17C2.79086 17 1 15.2091 1 13V5ZM5 7C6.10457 7 7 6.10457 7 5C7 3.89543 6.10457 3 5 3C3.89543 3 3 3.89543 3 5C3 6.10457 3.89543 7 5 7Z" fill="white"/>
<path fill-rule="evenodd" clip-rule="evenodd" d="M11 7C8.79086 7 7 8.79086 7 11V19C7 21.2091 8.79086 23 11 23H19C21.2091 23 23 21.2091 23 19V11C23 8.79086 21.2091 7 19 7H11ZM13 11C13 12.1046 12.1046 13 11 13C9.89543 13 9 12.1046 9 11C9 9.89543 9.89543 9 11 9C12.1046 9 13 9.89543 13 11ZM15 17C16.1046 17 17 16.1046 17 15C17 13.8954 16.1046 13 15 13C13.8954 13 13 13.8954 13 15C13 16.1046 13.8954 17 15 17ZM19 21C20.1046 21 21 20.1046 21 19C21 17.8954 20.1046 17 19 17C17.8954 17 17 17.8954 17 19C17 20.1046 17.8954 21 19 21Z" fill="white"/>
</svg>
