<svg width="24" height="24" viewBox="0 0 24 24" fill="none" xmlns="http://www.w3.org/2000/svg">
<path d="M6.08607 8.184C7.52607 8.184 8.62474 8.51467 9.38207 9.176C10.1394 9.82667 10.5181 10.8293 10.5181 12.184V17H7.68607V15.88C7.24874 16.7227 6.39541 17.144 5.12607 17.144C4.45407 17.144 3.87274 17.0267 3.38207 16.792C2.89141 16.5573 2.51807 16.2427 2.26207 15.848C2.01674 15.4427 1.89407 14.984 1.89407 14.472C1.89407 13.6507 2.20874 13.016 2.83807 12.568C3.46741 12.1093 4.43807 11.88 5.75007 11.88H7.47807C7.42474 10.9627 6.81141 10.504 5.63807 10.504C5.22207 10.504 4.80074 10.5733 4.37407 10.712C3.94741 10.84 3.58474 11.0213 3.28607 11.256L2.26207 9.192C2.74207 8.872 3.32341 8.62667 4.00607 8.456C4.69941 8.27467 5.39274 8.184 6.08607 8.184ZM5.97407 15.224C6.32607 15.224 6.63541 15.1387 6.90207 14.968C7.16874 14.7973 7.36074 14.5467 7.47807 14.216V13.464H6.16607C5.28074 13.464 4.83807 13.7573 4.83807 14.344C4.83807 14.6107 4.93941 14.824 5.14207 14.984C5.34474 15.144 5.62207 15.224 5.97407 15.224Z" fill="white"/>
<path d="M17.8929 8.184C18.6823 8.184 19.3969 8.36533 20.0369 8.728C20.6876 9.09067 21.1996 9.61333 21.5729 10.296C21.9569 10.968 22.1489 11.752 22.1489 12.648C22.1489 13.544 21.9569 14.3333 21.5729 15.016C21.1996 15.6987 20.6876 16.2267 20.0369 16.6C19.3969 16.9627 18.6823 17.144 17.8929 17.144C16.7516 17.144 15.8983 16.808 15.3329 16.136V17H12.4369V5.128H15.4769V9.08C16.0636 8.48267 16.8689 8.184 17.8929 8.184ZM17.2529 14.728C17.7863 14.728 18.2236 14.5467 18.5649 14.184C18.9063 13.8107 19.077 13.2987 19.077 12.648C19.077 12.008 18.9063 11.5067 18.5649 11.144C18.2236 10.7813 17.7863 10.6 17.2529 10.6C16.7196 10.6 16.2823 10.7813 15.9409 11.144C15.5996 11.5067 15.4289 12.008 15.4289 12.648C15.4289 13.2987 15.5996 13.8107 15.9409 14.184C16.2823 14.5467 16.7196 14.728 17.2529 14.728Z" fill="white"/>
</svg>
