<svg width="24" height="24" viewBox="0 0 24 24" fill="none" xmlns="http://www.w3.org/2000/svg">
<path d="M8.66317 15.096H4.51917L3.74917 17H0.921173L5.24717 7.2H7.97717L12.3172 17H9.43317L8.66317 15.096ZM7.85117 13.052L6.59117 9.916L5.33117 13.052H7.85117Z" fill="white"/>
<path d="M20.635 11.89C21.195 12.086 21.6337 12.394 21.951 12.814C22.2684 13.2247 22.427 13.724 22.427 14.312C22.427 15.1707 22.0817 15.8333 21.391 16.3C20.7004 16.7667 19.7017 17 18.395 17H13.103V7.2H18.115C19.3657 7.2 20.3177 7.43333 20.971 7.9C21.6244 8.35733 21.951 8.978 21.951 9.762C21.951 10.2287 21.8344 10.6487 21.601 11.022C21.377 11.386 21.055 11.6753 20.635 11.89ZM15.847 9.202V11.092H17.751C18.6844 11.092 19.151 10.7747 19.151 10.14C19.151 9.51466 18.6844 9.202 17.751 9.202H15.847ZM18.171 14.998C19.1417 14.998 19.627 14.6667 19.627 14.004C19.627 13.3413 19.1417 13.01 18.171 13.01H15.847V14.998H18.171Z" fill="white"/>
</svg>
